<svg width="256" height="184" fill="none" xmlns="http://www.w3.org/2000/svg">
    <style>
        @media (prefers-color-scheme: dark) {
            #a { fill: #fff; }
        }
    </style>
  <path style="opacity:1" fill="#423151" d="M228.364-.485h23.273c2.733 5.328 2.248 10.5-1.455 15.515a17709.346 17709.346 0 0 0-88.242 152.242l-8.242 8.242a79.108 79.108 0 0 1-10.667 4.848 1406.212 1406.212 0 0 0-34.909 2.424H59.637c-7.069-2.384-11.756-7.232-14.061-14.545A42499.525 42499.525 0 0 0-.485 18.909V8.242C1.33 5.305 3.916 3.204 7.273 1.939a681.208 681.208 0 0 1 51.394 0 22.255 22.255 0 0 1 4.848 1.939c5.239 4.819 8.31 10.8 9.212 17.939 11.966 43.652 23.925 87.287 35.879 130.909 3.124 3.327 7.003 4.621 11.636 3.879 5.132.657 9.657-.635 13.576-3.879L212.363 11.15c3.623-6.389 8.956-10.268 16-11.636Z"/>
</svg>



