<svg xmlns="http://www.w3.org/2000/svg" viewBox="0 0 250 250" style="enable-background:new 0 0 250 250" xml:space="preserve">
  <path d="m228.18 102.9-103.07 58.43L15.6 99.09l-5.12 2.76v45.17l114.76 65.39 103.07-58.43V178l-103.07 58.43L15.6 174.2l-5.12 2.76v7.62l114.76 65.39 115.15-65.39V139.4l-5.12-2.76-110.16 62.24-102.68-58.43v-23.63l102.68 58.04 115.15-65.39V64.95l-5.91-3.15-109.24 61.84-97.17-55.27 97.16-54.88 80.23 45.17 7.22-3.81v-5.51L125.11-.04 10.35 65.08v6.96l114.76 65.39L228.18 79v23.9z" style="fill:#ef3e2c"/>
</svg>
