<svg xmlns="http://www.w3.org/2000/svg" viewBox="0 0 250 250" style="enable-background:new 0 0 250 250" xml:space="preserve">
  <path d="M52.81 157.85c0 14.4-11.76 26.16-26.16 26.16S.5 172.25.5 157.85s11.76-26.16 26.16-26.16h26.16v26.16zm13.18 0c0-14.4 11.76-26.16 26.16-26.16s26.16 11.76 26.16 26.16v65.49c0 14.4-11.76 26.16-26.16 26.16s-26.16-11.76-26.16-26.16v-65.49z" style="fill:#e0225b"/>
  <path d="M92.15 52.81c-14.4 0-26.16-11.76-26.16-26.16S77.75.5 92.15.5s26.16 11.76 26.16 26.16v26.16c0-.01-26.16-.01-26.16-.01zm0 13.18c14.4 0 26.16 11.76 26.16 26.16s-11.76 26.16-26.16 26.16H26.66C12.26 118.31.5 106.55.5 92.15s11.76-26.16 26.16-26.16h65.49z" style="fill:#39c5ef"/>
  <path d="M197.19 92.15c0-14.4 11.76-26.16 26.16-26.16s26.16 11.76 26.16 26.16-11.76 26.16-26.16 26.16h-26.16V92.15zm-13.18 0c0 14.4-11.76 26.16-26.16 26.16s-26.16-11.76-26.16-26.16V26.66c0-14.4 11.76-26.16 26.16-26.16s26.16 11.76 26.16 26.16v65.49z" style="fill:#2fb77e"/>
  <path d="M157.85 197.19c14.4 0 26.16 11.76 26.16 26.16s-11.76 26.16-26.16 26.16-26.16-11.76-26.16-26.16v-26.16h26.16zm0-13.18c-14.4 0-26.16-11.76-26.16-26.16s11.76-26.16 26.16-26.16h65.49c14.4 0 26.16 11.76 26.16 26.16s-11.76 26.16-26.16 26.16h-65.49z" style="fill:#ebb22d"/>
</svg>
