<svg version="1.1" id="Layer_1" xmlns="http://www.w3.org/2000/svg" x="0" y="0" viewBox="0 0 250 250" style="enable-background:new 0 0 250 250" xml:space="preserve">
  <style>
    .st3{fill:#5d6792}
  </style>
  <path d="M118.53 168.28h13.68v-37.31h34.41V117.7h-34.41V80.39h-13.68v37.31h-34v13.27h34v37.31z" style="fill:#e8762e"/>
  <path d="M55.1 222.18h11.61v-33.17h30.68v-10.36H66.71v-33.58H55.1v33.58H24.42v10.36H55.1v33.17z" style="fill:#c72038"/>
  <path d="M184.04 102.36h11.61V69.19h31.09v-9.95h-31.09V25.66h-11.61v33.58h-30.68v9.95h30.68v33.17z" style="fill:#5c879b"/>
  <path class="st3" d="M120.6 248.3h9.95v-23.63h21.14v-8.71h-21.14v-23.63h-9.95v23.63H99.87v8.71h20.73v23.63z"/>
  <path d="M55.51 102.36h10.78V68.78h31.09v-9.54H66.29V25.66H55.51v33.58H24.42v9.54h31.09v33.58z" style="fill:#eb9126"/>
  <path class="st3" d="M219.28 152.11h9.95V128.9h21.14v-9.12h-21.14V96.56h-9.95v23.22h-20.73v9.12h20.73v23.21z"/>
  <path d="M184.04 222.18h11.61v-33.17h31.09v-10.36h-31.09v-33.58h-11.61v33.58h-30.68v10.36h30.68v33.17z" style="fill-rule:evenodd;clip-rule:evenodd;fill:#1f467e"/>
  <path d="M150.04 31.47v-7.05h-20.73V1.62h-7.46v22.8h-20.73v7.05h20.73v22.8h7.46v-22.8h20.73zM21.1 150.45h7.46v-22.8h20.73v-7.05H28.56V98.22H21.1v22.39H.37v7.46l20.73-.41v22.79z" style="fill:#7299a6"/>
</svg>
